HIERARCHY
ROOT hip
{
	OFFSET 0.000000 0.000000 0.000000 
	CHANNELS 6 Xposition Yposition Zposition Xrotation Zrotation Yrotation
	JOINT abdomen
	{
		OFFSET 0.000000 3.402643 0.000000 
		CHANNELS 3 Xrotation Zrotation Yrotation
		JOINT chest
		{
			OFFSET 0.000000 8.438565 -0.680529 
			CHANNELS 3 Xrotation Zrotation Yrotation
			JOINT neck
			{
				OFFSET 0.000000 10.207942 -0.272212 
				CHANNELS 3 Xrotation Zrotation Yrotation
				JOINT head
				{
					OFFSET 0.000000 3.130431 0.000000 
					CHANNELS 3 Xrotation Zrotation Yrotation
					End Site
					{
						OFFSET 0.000000 3.130435 0.000000 
					}
				}
			}
			JOINT lCollar
			{
				OFFSET 3.470700 6.669187 -0.816635 
				CHANNELS 3 Yrotation Zrotation Xrotation
				JOINT lShldr
				{
					OFFSET 3.198488 0.000000 0.000000 
					CHANNELS 3 Zrotation Yrotation Xrotation
					JOINT lForeArm
					{
						OFFSET 10.139888 0.000000 0.000000 
						CHANNELS 3 Yrotation Zrotation Xrotation
						JOINT lHand
						{
							OFFSET 8.370511 0.000000 0.000000 
							CHANNELS 3 Zrotation Yrotation Xrotation
							End Site
							{
								OFFSET 4.083176 0.000000 0.000000 
							}
						}
					}
				}
			}
			JOINT rCollar
			{
				OFFSET -3.470700 6.669187 -0.816635 
				CHANNELS 3 Yrotation Zrotation Xrotation
				JOINT rShldr
				{
					OFFSET -3.198488 0.000000 0.000000 
					CHANNELS 3 Zrotation Yrotation Xrotation
					JOINT rForeArm
					{
						OFFSET -10.139888 0.000000 0.000000 
						CHANNELS 3 Yrotation Zrotation Xrotation
						JOINT rHand
						{
							OFFSET -8.370511 0.000000 0.000000 
							CHANNELS 3 Zrotation Yrotation Xrotation
							End Site
							{
								OFFSET -4.083176 0.000000 0.000000 
							}
						}
					}
				}
			}
		}
	}
	JOINT lThigh
	{
		OFFSET 5.308129 -1.633274 1.361059 
		CHANNELS 3 Xrotation Zrotation Yrotation
		JOINT lShin
		{
			OFFSET -2.041588 -20.007561 0.000000 
			CHANNELS 3 Xrotation Zrotation Yrotation
			JOINT lFoot
			{
				OFFSET 0.000000 -19.190928 -1.224953 
				CHANNELS 3 Xrotation Yrotation Zrotation
				End Site
				{
					OFFSET 0.000000 -2.449906 4.627600 
				}
			}
		}
	}
	JOINT rThigh
	{
		OFFSET -5.308129 -1.633274 1.361059 
		CHANNELS 3 Xrotation Zrotation Yrotation
		JOINT rShin
		{
			OFFSET 2.041588 -20.007561 0.000000 
			CHANNELS 3 Xrotation Zrotation Yrotation
			JOINT rFoot
			{
				OFFSET 0.000000 -19.190928 -1.224953 
				CHANNELS 3 Xrotation Yrotation Zrotation
				End Site
				{
					OFFSET 0.000000 -2.449906 4.627600 
				}
			}
		}
	}
}
MOTION
Frames: 6
Frame Time: 0.011111
-0.958362 51.682484 -88.069992 2.360403 -4.605881 1.246877 36.653481 1.449964 0.900455 -26.699610 -1.217342 0.080877 -9.312452 -1.116066 -0.523498 -11.660620 1.445928 -1.434578 8.861669 -1.932660 3.351237 -69.735985 -20.489862 47.753597 -89.322716 5.257964 34.673702 8.524705 12.647240 -14.729872 -6.806992 -0.756156 2.905732 66.397888 20.468475 50.783298 85.260864 -2.607059 26.918736 -8.534408 -12.637552 42.064308 -23.372343 5.876906 -0.379312 38.248512 -4.781071 -5.900656 -10.325603 -7.952297 -4.800754 10.248798 -0.136803 -3.028042 81.924934 -0.065994 9.498491 19.764530 -15.306695 6.765388 
-0.947751 51.454052 -86.521828 2.026511 -4.405335 1.612589 37.442192 1.481572 0.320259 -26.913956 -0.943558 -0.087159 -8.960687 -1.296568 -0.315608 -12.529776 1.621997 -1.104958 8.861669 -1.932660 3.351237 -70.435844 -23.234831 48.418724 -89.459534 5.373690 34.772682 8.524705 12.647240 -15.266979 -6.806992 -0.756156 2.905732 66.678345 19.859758 49.659058 84.734108 -3.209212 26.212923 -8.534408 -12.637552 39.193218 -22.360882 5.262906 -0.891698 40.622131 -4.611477 -6.167162 -13.705168 -6.931508 -4.876503 7.564391 -1.318258 -4.711136 86.161888 -0.644878 9.642704 18.930532 -15.689304 6.806188 
-0.918104 51.174435 -85.002365 1.624380 -4.125325 1.817015 38.434402 1.392737 -0.137725 -27.265409 -0.879492 -0.188452 -8.676513 -1.268810 -0.149845 -13.515414 1.786868 -0.773286 8.861669 -1.932660 3.351237 -70.844833 -26.258989 49.351925 -89.555916 5.454436 34.832520 8.524705 12.647240 -15.677135 -6.806992 -0.756156 2.905732 67.283730 19.177361 48.114666 84.194313 -3.742956 25.624210 -8.534408 -12.637552 37.230331 -20.718754 4.676819 -1.196761 41.915691 -4.504264 -6.338803 -15.777515 -6.613546 -4.938584 4.683626 -2.663628 -6.085931 90.251274 -1.259930 9.718863 18.383837 -15.404926 6.615610 
-0.920914 50.988754 -83.471985 1.475698 -3.000755 1.963968 38.928043 0.339505 -1.344912 -27.841002 -0.337250 -0.375759 -7.230253 -1.613189 0.178824 -15.030619 2.456070 -0.291308 8.861669 -1.932660 3.351237 -71.269203 -28.672281 50.189682 -89.672379 5.546979 34.922195 8.524705 12.647240 -16.282604 -6.806992 -0.756156 2.905732 67.692360 17.843220 46.609749 83.793770 -4.099749 25.246679 -8.534408 -12.637552 36.566265 -18.936743 3.289163 -1.207171 42.864056 -4.409912 -6.454120 -17.422987 -6.911032 -5.151143 1.337264 -5.048165 -7.280033 94.070358 -1.797547 9.753287 17.680471 -14.265925 6.126315 
-0.963979 50.787163 -81.999962 1.601019 -1.334739 1.965419 39.195305 -1.420312 -2.964847 -27.929331 0.469716 -0.590618 -6.496925 -2.059357 0.577943 -16.113832 3.241759 0.310493 8.861669 -1.932660 3.351237 -71.785599 -31.775454 50.780830 -89.728485 5.593495 34.952553 8.524705 12.647240 -16.897839 -6.806992 -0.756156 2.905732 68.086838 16.940945 45.133915 83.437988 -4.389955 24.923588 -8.534408 -12.637552 36.849468 -17.121840 1.424913 -0.967761 43.425484 -4.387349 -6.493945 -19.130825 -6.675350 -5.156692 -2.625473 -8.156128 -8.091966 97.694695 -2.324271 9.776360 16.308187 -12.564837 5.393931 
-1.004547 50.620514 -80.532623 2.001022 0.036541 1.750391 39.507851 -3.139407 -3.940553 -27.402622 0.777752 -0.607583 -7.627971 -1.825355 0.802290 -16.687698 3.576127 0.709939 8.861669 -1.932660 3.351237 -71.892433 -35.852615 51.888710 -89.763054 5.619220 34.981972 8.524705 12.647240 -17.600965 -6.806992 -0.756156 2.905732 69.214905 16.911757 43.017941 83.046371 -4.687249 24.595375 -8.534408 -12.637552 37.367043 -15.439689 -0.078227 -0.804131 43.593227 -4.367945 -6.520196 -20.639894 -6.184383 -5.031399 -7.029820 -10.856040 -8.256467 100.864197 -2.782398 9.761184 14.219063 -10.729060 4.656322 
